<svg width="853" height="357" viewBox="0 0 853 357" fill="none" xmlns="http://www.w3.org/2000/svg">
<path d="M852.312 164.49C852.312 230.066 812.162 286.87 754.118 313.408C764.213 304.855 773.16 295.204 780.961 284.458C792.661 268.228 801.609 250.025 806.656 230.505C810.098 217.565 811.933 203.967 811.933 190.15C811.933 99.1326 734.617 25.2218 639.406 25.2218C544.195 25.2218 606.139 27.6343 590.768 31.8014C587.097 32.898 583.426 33.9946 579.755 35.3105C574.708 37.0651 569.89 39.0389 565.072 41.2321C546.259 57.2424 531.347 76.9812 521.252 99.3518C520.564 100.668 520.105 101.984 519.417 103.3C518.958 104.177 518.729 105.054 518.499 105.931C518.499 106.37 518.27 106.809 518.04 107.028C517.581 107.905 517.352 109.002 516.893 110.099C516.434 111.414 515.975 112.95 515.517 114.266C515.058 115.362 514.828 116.459 514.599 117.336C514.37 118.213 514.14 119.091 513.681 119.968C513.681 120.187 513.681 120.626 513.452 120.845C513.222 121.942 512.764 123.038 512.534 124.135C512.534 124.135 512.993 124.135 513.222 123.916C519.646 120.626 526.3 117.555 532.723 114.704C560.254 103.08 588.932 95.4041 618.987 92.9916C621.052 92.9916 622.887 92.7723 624.952 92.553C689.191 88.8245 727.964 114.704 736.682 176.114C736.682 178.088 736.682 179.842 736.223 181.597C736.223 181.816 736.223 182.035 736.223 182.255C736.223 183.132 736.223 184.009 735.994 184.887C735.994 185.764 735.764 186.86 735.535 187.738C735.535 188.615 735.076 189.712 734.846 190.589C734.846 191.466 734.388 192.343 734.158 193.221C733.929 194.098 733.699 194.975 733.47 195.853C733.47 196.511 733.011 197.388 732.782 198.046C732.782 198.704 732.323 199.362 732.093 200.02C732.093 200.678 731.634 201.116 731.405 201.774C730.946 203.09 730.487 204.187 729.799 205.503C729.57 206.161 729.34 206.599 729.111 207.257C727.734 210.328 726.128 213.179 724.522 215.811C724.522 216.249 724.063 216.469 723.834 216.688C723.146 217.785 722.457 218.881 721.54 219.978C721.31 220.416 720.852 220.855 720.622 221.294C720.393 221.732 719.934 222.171 719.704 222.61C719.475 223.048 719.016 223.487 718.787 223.926C718.787 224.145 718.328 224.583 718.098 224.803C717.64 225.241 717.41 225.68 716.951 226.119C716.034 227.215 714.886 228.312 713.969 229.409C713.739 229.628 713.28 230.066 713.051 230.286C712.592 230.724 712.133 231.163 711.904 231.602C706.398 235.988 700.203 239.278 693.55 241.252C693.55 240.813 694.009 240.374 694.009 239.936C694.468 239.059 694.697 237.962 695.156 237.085C695.156 236.646 695.615 235.988 695.615 235.549C695.615 235.111 695.844 234.672 696.074 234.453C696.074 234.014 696.303 233.576 696.533 233.137C696.991 231.382 697.45 229.628 697.909 227.873C697.909 227.215 698.138 226.557 698.368 226.119C698.368 225.68 698.368 225.022 698.597 224.583C698.597 223.926 698.827 223.048 699.056 222.171C699.056 221.513 699.056 220.855 699.286 220.197C699.286 219.32 699.286 218.662 699.515 217.785C701.121 208.134 700.433 198.923 697.221 190.15C697.221 189.712 697.221 189.273 696.991 188.834C696.991 188.176 696.533 187.299 696.303 186.641C696.303 185.983 695.844 185.545 695.844 184.887C695.844 184.229 695.385 183.79 695.156 183.132C694.697 182.035 694.238 180.939 693.779 179.842C693.321 178.746 692.862 177.868 692.403 176.772C692.403 176.772 692.403 176.772 692.403 176.552C691.715 175.017 691.026 173.482 690.109 171.947C690.109 171.947 690.109 171.727 690.109 171.508C689.65 170.85 689.42 170.192 688.961 169.534C688.503 168.876 688.044 167.999 687.585 167.341C686.438 165.367 685.061 163.393 683.685 161.639C683.226 161.2 682.996 160.761 682.538 160.103C682.308 159.665 681.849 159.226 681.62 159.007C681.161 158.568 680.932 158.13 680.473 157.691C680.014 157.252 679.785 156.814 679.326 156.375C678.637 155.498 677.72 154.62 676.802 153.743C675.884 152.866 675.196 151.989 674.278 151.331C673.82 150.892 673.59 150.673 673.131 150.234C670.378 147.822 667.625 145.409 664.642 143.435C664.184 142.996 663.725 142.777 663.266 142.339C662.807 141.9 662.119 141.461 661.66 141.242C661.201 141.023 660.742 140.584 660.283 140.365C659.366 139.926 658.677 139.268 657.76 138.829C657.071 138.391 656.613 138.171 655.924 137.733C655.236 137.294 654.777 137.075 654.089 136.856C653.401 136.636 652.942 136.198 652.254 135.978C651.565 135.54 650.877 135.32 650.189 134.882C649.959 134.882 649.501 134.662 649.271 134.443C649.042 134.443 648.583 134.224 648.353 134.004C647.665 133.785 646.977 133.346 646.289 133.127C645.6 132.908 644.912 132.469 644.224 132.25C643.765 132.25 643.535 132.031 643.077 131.811C642.159 131.373 641.241 131.153 640.094 130.715C638.029 130.057 636.194 129.399 634.129 128.96C633.211 128.741 632.064 128.521 631.147 128.302C630.688 128.302 630.229 128.302 629.77 128.083C628.852 128.083 627.935 127.644 627.017 127.644C626.099 127.644 625.411 127.425 624.493 127.205C624.034 127.205 623.576 127.205 622.887 127.205C622.199 127.205 621.281 127.205 620.593 126.986C619.675 126.986 618.758 126.986 617.84 126.767C617.84 126.767 617.84 126.767 617.61 126.767C616.463 126.767 615.316 126.767 614.169 126.767C613.71 126.767 613.481 126.767 613.022 126.767C612.334 126.767 611.646 126.767 611.187 126.767C595.586 126.767 581.132 130.495 568.514 137.294C550.619 146.725 536.394 161.858 528.823 180.062C526.3 184.448 524.235 188.834 522.858 193.44C519.187 205.503 519.876 218.442 524.694 230.944C525.611 234.891 526.988 238.839 528.364 242.568C533.641 255.508 542.13 266.912 552.913 275.904C565.531 289.063 580.444 300.468 596.733 309.022C621.511 322.181 649.959 329.638 680.473 329.638C710.986 329.638 683.685 329.638 685.52 329.638C687.126 329.638 688.503 329.638 690.109 329.638C690.567 329.638 690.797 329.638 691.256 329.638C691.256 329.638 691.256 329.638 691.485 329.638C691.485 329.638 691.485 329.638 691.715 329.638C692.862 329.638 694.238 329.638 695.385 329.418C696.991 329.418 698.597 329.199 700.203 328.98C700.203 328.98 700.203 328.98 700.433 328.98C701.58 328.98 702.727 328.76 703.874 328.541H704.333C704.333 328.541 704.333 328.541 704.562 328.541C704.562 328.541 705.021 328.541 705.251 328.541C706.398 328.541 707.774 328.102 708.921 328.102C709.38 328.102 709.61 328.102 710.069 328.102C711.445 327.883 713.051 327.664 714.428 327.225C715.116 327.225 715.804 327.006 716.722 326.786H717.181C717.181 326.786 717.41 326.786 717.64 326.786C718.557 326.786 719.246 326.348 720.163 326.129C721.081 326.129 721.769 325.69 722.687 325.471C723.605 325.471 724.293 325.032 725.211 324.813C726.128 324.813 726.816 324.374 727.734 324.155C729.111 323.716 730.258 323.497 731.634 323.058C733.011 322.619 734.388 322.181 735.764 321.742C737.141 321.304 738.517 320.865 739.664 320.426C741.041 319.988 742.417 319.549 743.565 319.11C744.941 318.672 746.088 318.233 747.465 317.575C747.694 317.575 747.924 317.575 748.153 317.356L749.3 316.917C749.988 316.698 750.447 316.478 751.135 316.259C752.283 315.821 753.659 315.163 754.806 314.724C724.293 340.604 684.144 356.395 640.094 356.395C596.045 356.395 610.728 354.64 596.962 351.131C594.897 350.692 592.833 350.034 590.997 349.596C590.538 349.596 590.08 349.376 589.391 349.157C588.474 348.938 587.556 348.718 586.638 348.28C585.262 347.841 583.885 347.403 582.509 346.964C580.903 346.306 579.297 345.867 577.691 345.209C576.773 344.771 575.626 344.551 574.708 344.113C574.02 343.893 573.102 343.455 572.414 343.235C570.808 342.578 569.202 341.92 567.596 341.262C565.99 340.604 564.613 339.946 563.008 339.068C560.943 338.191 559.107 337.095 557.042 336.217C554.748 334.901 552.454 333.585 550.16 332.489C548.324 331.392 546.718 330.515 545.112 329.418C543.736 328.541 542.589 327.664 541.212 326.786C539.836 325.909 538.459 325.032 537.083 323.935C535.706 323.058 534.329 321.961 533.182 321.084C532.035 320.207 530.888 319.33 529.741 318.452C528.594 317.575 527.447 316.698 526.3 315.601C524.923 314.505 523.547 313.189 522.17 312.092C521.252 311.434 520.564 310.557 519.646 309.899C518.958 309.46 518.499 308.802 518.04 308.364C517.123 307.486 516.205 306.609 515.287 305.732C514.599 305.074 514.14 304.635 513.452 303.977C509.093 299.591 504.963 294.766 501.292 289.941C500.833 289.283 500.375 288.844 499.916 288.186C499.228 287.309 498.539 286.432 497.851 285.554C496.016 283.142 494.18 280.51 492.574 277.878C491.886 276.782 490.968 275.466 490.28 274.15C489.362 272.615 488.445 271.299 487.756 269.763C487.297 269.105 487.068 268.447 486.609 267.789C485.921 266.254 485.003 264.938 484.315 263.403C484.086 262.745 483.627 262.087 483.397 261.429C482.709 259.894 481.791 258.139 481.103 256.604C480.874 255.946 480.415 255.069 480.185 254.411C479.956 253.753 479.497 252.876 479.268 252.218C478.579 250.902 478.12 249.367 477.662 248.051C477.203 247.173 476.973 246.296 476.744 245.2C476.285 243.664 475.597 242.129 475.138 240.594C474.679 239.497 474.45 238.181 473.991 236.865V236.427C473.991 235.988 473.761 235.549 473.532 235.111C473.303 234.014 472.844 232.918 472.614 231.602C472.614 231.382 472.614 231.163 472.614 230.944C472.385 229.628 471.926 228.312 471.697 226.996C471.697 226.996 471.697 226.557 471.697 226.338C471.238 224.803 471.008 223.048 470.779 221.513C470.549 219.978 470.091 218.223 469.861 216.688C469.861 215.153 469.402 213.837 469.173 212.521C469.173 212.082 469.173 211.644 469.173 211.205C469.173 209.67 468.943 208.354 468.714 206.819C468.714 206.38 468.714 205.941 468.714 205.503C468.714 203.967 468.485 202.213 468.485 200.678C468.485 199.8 468.485 198.923 468.485 198.046C468.485 197.168 468.485 196.072 468.485 195.195C468.485 194.317 468.485 193.221 468.485 192.343C468.485 185.325 468.943 178.526 469.861 171.947C468.714 171.727 467.796 171.508 466.649 171.289C465.502 171.069 464.584 170.85 463.437 170.631C462.29 170.411 461.372 170.192 460.225 169.973C459.078 169.973 457.931 169.534 457.013 169.315C456.096 169.315 455.178 169.096 454.26 168.876C454.031 168.876 453.572 168.876 453.343 168.876C452.425 168.876 451.507 168.657 450.59 168.438C449.442 168.438 448.295 168.218 447.148 167.999C446.001 167.999 444.854 167.78 443.707 167.56C442.33 167.56 440.954 167.341 439.577 167.122C436.824 167.122 434.071 166.683 431.088 166.683C429.712 166.683 428.335 166.683 426.729 166.683C425.123 166.683 423.976 166.683 422.6 166.683C422.141 166.683 421.682 166.683 421.223 166.683C420.076 166.683 419.158 166.683 418.011 166.683C417.552 166.683 417.094 166.683 416.635 166.683C415.029 166.683 413.652 166.683 412.046 166.902C410.67 166.902 409.293 167.122 407.917 167.341C406.54 167.341 405.164 167.56 403.558 167.78C401.722 167.999 399.887 168.218 398.051 168.657C396.675 168.657 395.528 169.096 394.381 169.315C393.004 169.534 391.398 169.973 390.022 170.192C390.939 177.43 391.627 184.667 391.627 192.124C391.627 199.581 391.627 195.195 391.627 196.73C391.627 196.949 391.627 197.388 391.627 197.607C391.627 198.704 391.627 199.8 391.627 200.897C391.627 201.336 391.627 201.774 391.627 202.213C391.627 202.652 391.627 203.09 391.627 203.529C391.627 204.845 391.627 206.38 391.169 207.696C391.169 209.012 390.939 210.547 390.71 212.082C390.71 212.96 390.48 213.837 390.251 214.933C390.251 216.03 390.021 217.127 389.792 218.223C389.104 222.39 388.186 226.777 387.268 230.944C387.268 231.821 386.81 232.479 386.58 233.356C386.121 234.891 385.662 236.427 385.204 237.962C384.745 239.497 384.286 240.813 383.827 242.348C383.368 243.884 382.909 245.2 382.221 246.735C381.762 248.051 381.074 249.586 380.615 250.902C380.156 252.218 379.468 253.753 378.78 255.069C378.321 255.946 377.862 257.043 377.403 257.92C376.485 259.894 375.568 261.868 374.65 263.842C374.191 264.5 373.962 265.377 373.503 266.035C373.273 266.693 372.815 267.132 372.585 267.789C372.126 268.667 371.668 269.325 371.209 270.202C370.062 272.176 368.914 274.15 367.767 276.124C367.308 277.001 366.62 277.878 366.161 278.755C366.161 278.755 366.161 278.975 365.932 279.194C364.097 282.045 362.032 284.896 359.967 287.528C359.049 288.844 357.902 290.379 356.755 291.695C355.608 293.011 354.461 294.327 353.543 295.643C353.084 296.301 352.625 296.959 351.937 297.398C351.249 298.275 350.561 298.933 349.872 299.81C349.184 300.687 348.496 301.345 347.807 302.223C346.89 303.1 345.972 304.197 345.054 305.074C345.054 305.074 345.054 305.074 344.825 305.293C343.907 306.17 342.99 307.267 342.072 308.144C340.925 309.241 339.548 310.557 338.401 311.653C337.254 312.531 336.107 313.627 335.189 314.505C334.73 314.943 334.042 315.382 333.583 315.821C333.124 316.259 332.436 316.698 331.977 317.136C331.059 317.794 330.142 318.672 329.224 319.33C327.159 320.865 325.324 322.4 323.259 323.935C322.112 324.813 320.735 325.69 319.588 326.567C318.441 327.444 317.294 328.102 315.917 328.98C314.77 329.857 313.394 330.515 312.247 331.392C311.1 332.05 310.182 332.708 309.035 333.366C307.888 334.024 306.97 334.682 305.823 335.121C304.905 335.559 304.217 335.998 303.299 336.437C301.923 337.095 300.546 337.752 299.169 338.63C298.481 339.068 297.793 339.288 297.105 339.507C296.187 339.946 295.04 340.384 294.122 340.823C292.057 341.7 290.222 342.578 288.157 343.455C285.175 344.551 282.192 345.867 279.21 346.745C277.833 347.183 276.227 347.622 274.85 348.28C274.392 348.28 274.162 348.499 273.703 348.718C272.786 348.938 271.868 349.376 270.95 349.596C269.574 350.034 268.197 350.473 266.821 350.692C266.132 350.692 265.444 351.131 264.756 351.131C264.756 351.131 264.526 351.131 264.297 351.131C263.609 351.131 262.92 351.57 262.462 351.57C261.773 351.57 261.085 351.789 260.626 352.008C259.25 352.228 258.102 352.666 256.726 352.886C245.025 355.298 232.636 356.614 220.247 356.614C197.305 356.614 175.51 352.447 155.55 344.551C155.091 344.551 154.861 344.332 154.403 344.113C138.572 337.752 123.889 329.418 110.812 319.11C130.542 326.786 152.108 330.734 174.821 330.734C197.534 330.734 232.178 323.716 256.496 311.215C277.833 300.249 296.416 285.116 311.329 266.912C313.623 264.28 315.917 261.429 317.753 258.359C320.735 253.972 323.259 249.147 325.324 244.103C335.418 228.312 337.713 209.889 332.665 193.44C330.142 185.325 326.012 177.868 320.047 171.289C312.247 158.13 301.005 147.383 287.469 139.707C274.392 132.25 259.02 128.083 242.731 128.083C193.634 128.083 153.944 166.025 153.944 212.96C153.944 259.894 153.944 215.153 153.944 216.249C153.944 217.346 153.944 218.443 153.944 219.539C153.944 219.978 153.944 220.197 153.944 220.416C153.944 221.294 153.944 222.171 154.173 222.829C154.173 223.487 154.173 224.145 154.403 224.583C154.403 225.899 154.861 227.215 155.091 228.531C155.091 229.189 155.32 229.847 155.55 230.505C155.55 231.163 155.779 231.821 156.009 232.26C156.009 232.918 156.238 233.576 156.467 234.234C156.697 235.111 156.926 235.988 157.385 237.085C158.073 239.059 158.762 241.033 159.45 242.787C159.45 242.787 159.45 243.006 159.45 243.226C152.797 240.594 146.373 236.646 140.637 231.602C139.949 230.944 139.261 230.286 138.802 229.628C138.343 228.97 137.884 228.531 137.425 227.873C137.196 227.654 136.966 227.215 136.737 226.996C136.508 226.777 136.278 226.338 136.049 226.119C135.819 225.899 135.59 225.461 135.36 225.241C135.131 224.803 134.672 224.584 134.443 224.145C133.984 223.487 133.525 222.829 133.066 222.171C132.607 221.513 132.148 220.855 131.69 220.197C131.69 220.197 131.69 219.978 131.46 219.758C131.231 219.32 131.001 218.881 130.772 218.443C130.313 217.785 130.084 217.127 129.625 216.688C129.625 216.688 129.625 216.469 129.395 216.249C129.166 215.811 128.707 215.153 128.478 214.714C128.019 213.837 127.56 213.179 127.101 212.302C127.101 211.863 126.642 211.644 126.642 211.205C126.183 210.547 125.954 209.67 125.495 209.012C125.495 208.573 125.036 208.135 124.807 207.696C124.577 207.038 124.348 206.599 124.119 205.941C123.66 205.064 123.43 203.967 122.971 203.09C122.742 202.432 122.513 201.774 122.283 201.336C121.824 200.02 121.366 198.704 120.907 197.168C120.677 196.072 120.218 194.975 119.989 194.098C119.989 193.659 119.76 193.001 119.53 192.563C119.53 192.124 119.53 191.686 119.301 191.247C119.301 190.37 119.071 189.712 118.842 188.834C118.842 187.957 118.612 187.08 118.383 186.202C118.383 185.545 118.383 184.667 118.154 184.009C119.071 145.19 140.637 102.422 195.011 95.4041C208.317 93.6496 221.624 93.4302 234.701 94.0882C261.773 95.8427 287.698 102.422 313.394 112.511C314.77 113.169 316.147 113.608 317.523 114.266C325.783 117.555 333.812 121.284 341.613 125.012C341.384 123.696 340.925 122.6 340.695 121.284C340.695 120.626 340.236 119.968 340.007 119.31C339.548 118.213 339.319 117.117 338.86 115.801C338.401 114.266 337.942 112.95 337.254 111.414C337.254 110.976 337.024 110.756 336.795 110.318C336.795 109.66 336.336 109.221 336.107 108.563C335.419 106.37 334.501 104.396 333.583 102.422C322.571 77.4199 305.364 55.4879 283.798 38.381C279.668 36.8457 275.539 35.3105 271.18 34.2139C267.738 33.3366 264.526 32.24 261.085 31.582C247.778 28.5116 234.013 26.757 219.789 26.757C124.348 26.757 47.2614 100.668 47.2614 191.685C47.2614 282.703 47.2614 194.975 47.2614 196.511C47.2614 197.607 47.2614 198.923 47.2614 200.02C47.2614 200.02 47.2614 200.239 47.2614 200.458C47.2614 201.116 47.2614 201.774 47.2614 202.432C47.2614 204.845 47.7203 207.477 47.9497 209.889C47.9497 210.547 47.9497 211.205 48.1791 211.644C48.1791 212.74 48.4086 213.837 48.638 214.714C48.638 215.153 48.638 215.372 48.638 215.811C48.638 216.688 48.8674 217.565 49.0968 218.443V218.881C49.0968 219.32 49.0968 219.978 49.3263 220.416C49.5557 221.732 49.7851 223.048 50.0145 224.364C50.2439 225.899 50.7028 227.215 50.9322 228.751C50.9322 228.97 50.9322 229.189 50.9322 229.409C51.1617 230.724 51.6205 231.821 51.8499 233.137C51.8499 233.137 51.8499 233.356 51.8499 233.576C51.8499 233.576 51.8499 233.576 51.8499 233.795C51.8499 234.453 52.3088 235.33 52.5382 235.988C52.5382 235.988 52.5382 235.988 52.5382 236.207C52.5382 237.085 52.9971 237.743 53.2265 238.401C53.6853 240.155 54.3736 241.69 54.8324 243.445C55.0619 244.322 55.5207 245.2 55.7501 245.857C55.7501 246.077 55.9796 246.515 56.209 246.735C56.6679 247.831 56.8973 248.709 57.3561 249.805C57.3561 250.025 57.3561 250.244 57.5855 250.683C58.0444 251.998 58.5032 253.095 59.1915 254.411C59.1915 254.63 59.1915 254.85 59.4209 255.069C59.8798 256.165 60.3386 257.262 60.7975 258.139C60.7975 258.578 61.2563 259.017 61.2563 259.236C61.7152 260.333 62.4034 261.429 62.8623 262.526C62.8623 262.745 62.8623 262.964 63.0917 263.184C63.5506 264.061 64.0094 264.938 64.4683 265.596C64.6977 266.254 65.1565 266.693 65.386 267.351C65.6154 267.789 65.8448 268.228 66.3037 268.886C66.3037 269.325 66.7625 269.544 66.9919 269.983C66.9919 270.421 67.4508 270.641 67.6802 271.079C69.745 274.588 71.8098 277.878 74.1041 281.168C74.5629 281.826 75.0218 282.484 75.4806 283.142C76.1689 284.019 76.8572 285.116 77.5454 285.993C78.0043 286.87 78.6926 287.528 79.3808 288.406C79.3808 288.625 79.6103 288.844 79.8397 289.063C80.2985 289.721 80.9868 290.379 81.4457 291.257C81.4457 291.476 81.9045 291.695 82.1339 291.915C82.1339 291.915 82.1339 291.915 82.1339 292.134C82.5928 292.792 83.2811 293.45 83.7399 294.108C83.7399 294.108 83.7399 294.327 83.9693 294.546C84.6576 295.424 85.3459 296.082 86.0342 296.959C87.6401 298.933 89.4755 300.907 91.3109 302.661C91.7698 303.1 91.9992 303.539 92.458 303.758C93.1463 304.635 94.064 305.293 94.9817 306.17C95.8994 307.048 96.8171 307.925 97.7348 308.802C97.9642 309.022 98.1937 309.241 98.6525 309.68C99.5702 310.338 100.258 311.215 101.176 311.873L101.864 312.531C103.012 313.408 103.929 314.285 105.076 315.163C106.223 316.04 107.371 317.136 108.747 318.014C107.6 317.575 106.453 317.136 105.306 316.698C43.3612 291.695 0 233.137 0 164.709C0 96.2814 10.3241 100.229 28.2192 74.3494C28.678 73.6914 29.1369 73.0335 29.3663 72.5949C59.6503 29.8275 110.124 1.31592 167.939 0C169.545 0 170.921 0 172.527 0H173.445C183.769 0 194.093 0.657986 204.417 1.53527C221.395 3.0705 238.143 5.92162 254.661 9.65006C256.497 10.0887 258.561 10.5274 260.397 10.966C278.751 15.3524 297.105 20.6161 315 26.3184C324.406 29.3889 333.812 32.4593 343.448 35.3105C365.702 46.9345 390.939 53.9527 417.782 55.0493C424.435 55.9266 431.088 55.9265 437.742 54.8299C461.602 53.2947 484.085 47.1537 504.275 37.065C516.205 33.3366 528.135 29.6081 540.065 25.8797C556.813 20.616 573.561 15.791 590.538 11.8433C592.603 11.4046 594.439 10.966 596.503 10.5273C619.216 5.48297 642.388 1.97385 666.019 0.657933C670.837 0.438613 675.655 0.219333 680.473 0.219333C682.308 0.219333 683.914 0.219333 685.75 0.219333C749.759 1.97389 804.821 37.065 833.04 87.7279C844.741 109.002 851.853 132.908 853 158.349C853 159.007 853 159.445 853 160.103C853 161.858 853 163.613 853 165.367L852.312 164.49Z" fill="url(#paint0_linear_445_4136)"/>
<defs>
<linearGradient id="paint0_linear_445_4136" x1="420.767" y1="59.1845" x2="426.006" y2="373.747" gradientUnits="userSpaceOnUse">
<stop stop-color="#FFC402" stop-opacity="0.8"/>
<stop offset="0.518223" stop-color="#F1078E" stop-opacity="0.3"/>
<stop offset="0.91923" stop-color="#1B1B1B" stop-opacity="0.1"/>
</linearGradient>
</defs>
</svg>
