<svg width="39" height="35" viewBox="0 0 39 35" fill="none" xmlns="http://www.w3.org/2000/svg">
<path d="M32.0686 13.6512C32.0686 14.4612 31.8485 14.5492 30.3342 14.5492H28.0628C28.0628 14.5404 26.1524 14.5404 26.1524 14.5404C25.7562 14.5404 25.3952 14.5756 25.0607 14.6372C24.5413 14.7341 24.0923 14.9014 23.6961 15.1391C23.2383 15.4032 22.8597 15.7553 22.5604 16.1691C22.3843 15.9314 22.1818 15.7113 21.9529 15.5176C21.2486 14.919 20.2802 14.558 19.0476 14.5404H17.146C17.146 14.5492 14.8482 14.5492 14.8482 14.5492C13.1226 14.5492 13.0874 14.4259 13.1138 13.2814C13.2811 13.211 13.4572 13.1318 13.6245 13.0613C13.8974 12.9469 14.1615 12.8324 14.4344 12.7268C15.3412 12.3482 16.2568 11.9697 17.1636 11.5823C17.2252 11.5559 17.2869 11.5295 17.3485 11.5031C17.9031 11.2742 18.4754 11.2566 19.0388 11.4414C19.1005 11.459 19.1533 11.4855 19.2149 11.5031C19.8048 11.7408 20.3946 11.9785 20.9845 12.2338C21.768 12.5859 22.534 12.5859 23.3175 12.2426C23.925 11.9697 24.5501 11.7232 25.1663 11.4767C25.2015 11.4678 25.228 11.4502 25.2632 11.4414C25.809 11.2478 26.3637 11.2478 26.9007 11.4678C27.2881 11.6263 27.6666 11.7848 28.054 11.9433C28.6527 12.1898 29.2601 12.4451 29.8588 12.7004C30.5543 12.9909 31.241 13.2814 31.9365 13.572C31.9805 13.5896 32.0245 13.6072 32.0774 13.6336L32.0686 13.6512Z" fill="white"/>
<path d="M34.7269 24.0132C31.9272 25.5187 28.9868 26.6368 25.8262 27.0946C24.6553 27.2619 23.4755 27.3851 22.5335 27.3499C17.9555 27.3851 13.9321 26.2142 10.0937 24.2598C9.7239 24.0749 9.37175 23.8636 9.00199 23.6963C8.66744 23.5466 8.5882 23.3089 8.63222 22.9656C8.70265 22.3845 8.94036 21.8563 9.15165 21.3193C9.53902 20.342 9.91759 19.3736 10.305 18.3964C10.437 18.053 10.4282 17.8329 9.97921 17.8505C9.7239 17.8593 9.67108 17.7361 9.73271 17.4984C9.9528 16.7589 10.1641 16.0105 10.3842 15.271C10.5779 14.6371 10.9917 14.1793 11.5903 13.924C11.6784 13.8888 11.7664 13.8536 11.8544 13.8096C11.8544 15.7464 12.0833 15.808 14.8389 15.808H17.1368V23.8724H19.0384V16.4419C20.1477 16.4683 20.8168 17.0758 21.1865 17.7889C21.4859 18.3524 21.6003 18.9862 21.6003 19.4176V21.152H23.5108V19.4176C23.5108 18.8806 23.678 18.053 24.1622 17.4103C24.5672 16.8645 25.2011 16.4419 26.1519 16.4419V23.8724H28.0623V15.808H30.3337C32.8428 15.808 33.2566 15.7552 33.3095 14.2938C33.6 14.5491 33.8113 14.8836 33.9257 15.2886C34.1458 16.0193 34.3483 16.7501 34.5684 17.472C34.6476 17.7185 34.6036 17.8593 34.3131 17.8417C33.8905 17.8241 33.8641 18.0354 33.9962 18.3612C34.4451 19.4881 34.8853 20.6238 35.3343 21.7507C35.3784 21.8475 35.4136 21.9531 35.4488 22.05C35.8978 23.2561 35.8274 23.4146 34.7269 24.0044V24.0132Z" fill="white"/>
<path d="M34.1354 26.6812C33.7392 27.8169 32.9645 28.7061 32.1633 29.5513C30.4465 31.3649 28.4393 32.7999 26.1238 33.7684C24.8473 34.3054 23.5267 34.6047 21.4842 34.6047C19.9876 34.6135 18.0507 33.874 16.2459 32.7999C13.9745 31.4617 12.0025 29.7714 10.5674 27.5176C10.3385 27.1567 10.1624 26.7693 10.0832 26.3467C9.98637 25.7921 10.1713 25.5279 10.7083 25.3695C11.2013 25.2286 11.6327 25.4047 12.0641 25.616C13.4903 26.3027 14.9694 26.8573 16.4924 27.2711C21.405 28.6181 26.2207 28.3804 30.9043 26.3115C31.3798 26.1002 31.8376 25.8713 32.3042 25.6512C32.4714 25.572 32.6299 25.4839 32.7972 25.4223C33.255 25.255 33.6864 25.3695 34.0385 25.66C34.3907 25.9417 34.2498 26.3379 34.1266 26.6812H34.1354Z" fill="white"/>
<path d="M38.2454 6.64245C38.2454 9.2748 36.7047 11.555 34.4774 12.6203C34.8647 12.2769 35.2081 11.8896 35.5074 11.4582C35.9564 10.8067 36.2998 10.076 36.4934 9.29241C36.6255 8.77298 36.6959 8.22714 36.6959 7.6725C36.6959 4.0189 33.729 1.052 30.0754 1.052C26.4218 1.052 28.7989 1.14884 28.209 1.31611C28.0681 1.36013 27.9273 1.40415 27.7864 1.45697C27.5927 1.5274 27.4079 1.60664 27.223 1.69468C26.5011 2.33736 25.9288 3.12971 25.5414 4.0277C25.515 4.08052 25.4974 4.13335 25.471 4.18617C25.4534 4.22139 25.4446 4.2566 25.4358 4.29182C25.4358 4.30942 25.427 4.32703 25.4182 4.33583C25.4006 4.37105 25.3918 4.41507 25.3742 4.45909C25.3566 4.51191 25.3389 4.57354 25.3213 4.62636C25.3037 4.67038 25.2949 4.7144 25.2861 4.74962C25.2773 4.78483 25.2685 4.82005 25.2509 4.85527C25.2509 4.86407 25.2509 4.88168 25.2421 4.89048C25.2333 4.9345 25.2157 4.97852 25.2069 5.02254C25.2069 5.02254 25.2245 5.02254 25.2333 5.01373C25.4798 4.88168 25.7351 4.75842 25.9816 4.64397C27.0381 4.17737 28.1386 3.86923 29.2919 3.77239C29.3711 3.77239 29.4415 3.76359 29.5208 3.75478C31.9859 3.60512 33.4737 4.64397 33.8083 7.10905C33.8083 7.18829 33.8083 7.25872 33.7907 7.32915C33.7907 7.33795 33.7907 7.34676 33.7907 7.35556C33.7907 7.39078 33.7907 7.42599 33.7818 7.46121C33.7818 7.49642 33.773 7.54044 33.7642 7.57566C33.7642 7.61087 33.7466 7.65489 33.7378 7.69011C33.7378 7.72532 33.7202 7.76054 33.7114 7.79575C33.7026 7.83097 33.6938 7.86618 33.685 7.9014C33.685 7.92781 33.6674 7.96303 33.6586 7.98944C33.6586 8.01585 33.641 8.04226 33.6322 8.06868C33.6322 8.09509 33.6146 8.11269 33.6058 8.1391C33.5882 8.19193 33.5706 8.23595 33.5441 8.28877C33.5353 8.31518 33.5265 8.33279 33.5177 8.3592C33.4649 8.48246 33.4033 8.5969 33.3417 8.70255C33.3417 8.72016 33.324 8.72896 33.3152 8.73777C33.2888 8.78179 33.2624 8.8258 33.2272 8.86982C33.2184 8.88743 33.2008 8.90504 33.192 8.92265C33.1832 8.94026 33.1656 8.95786 33.1568 8.97547C33.148 8.99308 33.1304 9.01069 33.1216 9.0283C33.1216 9.0371 33.104 9.05471 33.0951 9.06351C33.0775 9.08112 33.0687 9.09873 33.0511 9.11633C33.0159 9.16035 32.9719 9.20437 32.9367 9.24839C32.9279 9.2572 32.9103 9.2748 32.9015 9.28361C32.8839 9.30122 32.8662 9.31882 32.8574 9.33643C32.6462 9.51251 32.4084 9.64457 32.1531 9.7238C32.1531 9.70619 32.1707 9.68858 32.1707 9.67098C32.1884 9.63576 32.1972 9.59174 32.2148 9.55653C32.2148 9.53892 32.2324 9.51251 32.2324 9.4949C32.2324 9.47729 32.2412 9.45968 32.25 9.45088C32.25 9.43327 32.2588 9.41566 32.2676 9.39806C32.2852 9.32763 32.3028 9.25719 32.3204 9.18676C32.3204 9.16035 32.3292 9.13394 32.338 9.11633C32.338 9.09873 32.338 9.07231 32.3468 9.05471C32.3468 9.02829 32.3556 8.99308 32.3644 8.95786C32.3644 8.93145 32.3644 8.90504 32.3732 8.87863C32.3732 8.84341 32.3732 8.817 32.382 8.78179C32.4437 8.39442 32.4173 8.02466 32.294 7.6725C32.294 7.65489 32.294 7.63729 32.2852 7.61968C32.2852 7.59327 32.2676 7.55805 32.2588 7.53164C32.2588 7.50523 32.2412 7.48762 32.2412 7.46121C32.2412 7.43479 32.2236 7.41719 32.2148 7.39078C32.1972 7.34676 32.1795 7.30274 32.1619 7.25872C32.1443 7.2147 32.1267 7.17948 32.1091 7.13547C32.1091 7.13547 32.1091 7.13546 32.1091 7.12666C32.0827 7.06503 32.0563 7.00341 32.0211 6.94178C32.0211 6.94178 32.0211 6.93298 32.0211 6.92417C32.0035 6.89776 31.9947 6.87135 31.9771 6.84494C31.9594 6.81852 31.9418 6.78331 31.9242 6.7569C31.8802 6.67766 31.8274 6.59843 31.7746 6.528C31.757 6.51039 31.7482 6.49278 31.7306 6.46637C31.7217 6.44876 31.7041 6.43116 31.6953 6.42235C31.6777 6.40474 31.6689 6.38714 31.6513 6.36953C31.6337 6.35192 31.6249 6.33431 31.6073 6.3167C31.5809 6.28149 31.5457 6.24627 31.5105 6.21106C31.4752 6.17584 31.4488 6.14063 31.4136 6.11422C31.396 6.09661 31.3872 6.0878 31.3696 6.0702C31.2639 5.97335 31.1583 5.87651 31.0438 5.79728C31.0262 5.77967 31.0086 5.77086 30.991 5.75326C30.9734 5.73565 30.947 5.71804 30.9294 5.70924C30.9118 5.70043 30.8942 5.68283 30.8766 5.67402C30.8414 5.65642 30.8149 5.63 30.7797 5.61239C30.7533 5.59479 30.7357 5.58598 30.7093 5.56838C30.6829 5.55077 30.6653 5.54196 30.6389 5.53316C30.6125 5.52436 30.5949 5.50675 30.5684 5.49795C30.542 5.48034 30.5156 5.47153 30.4892 5.45393C30.4804 5.45393 30.4628 5.44512 30.454 5.43632C30.4452 5.43632 30.4276 5.42752 30.4188 5.41871C30.3924 5.40991 30.3659 5.3923 30.3395 5.3835C30.3131 5.37469 30.2867 5.35708 30.2603 5.34828C30.2427 5.34828 30.2339 5.33948 30.2163 5.33067C30.1811 5.31307 30.1459 5.30426 30.1018 5.28665C30.0226 5.26024 29.9522 5.23383 29.8729 5.21622C29.8377 5.20742 29.7937 5.19861 29.7585 5.18981C29.7409 5.18981 29.7233 5.18981 29.7057 5.18101C29.6704 5.18101 29.6352 5.1634 29.6 5.1634C29.5648 5.1634 29.5384 5.1546 29.5032 5.14579C29.4856 5.14579 29.468 5.14579 29.4415 5.14579C29.4151 5.14579 29.3799 5.14579 29.3535 5.13699C29.3183 5.13699 29.2831 5.13699 29.2479 5.12818C29.2479 5.12818 29.2479 5.12818 29.2391 5.12818C29.195 5.12818 29.151 5.12818 29.107 5.12818C29.0894 5.12818 29.0806 5.12818 29.063 5.12818C29.0366 5.12818 29.0102 5.12818 28.9925 5.12818C28.3939 5.12818 27.8392 5.27785 27.355 5.55077C26.6683 5.92934 26.1225 6.5368 25.832 7.26752C25.7351 7.4436 25.6559 7.61968 25.6031 7.80456C25.4622 8.28877 25.4886 8.8082 25.6735 9.31002C25.7087 9.46849 25.7615 9.62696 25.8144 9.77662C26.0168 10.2961 26.3426 10.7539 26.7564 11.1148C27.2406 11.643 27.8128 12.1008 28.4379 12.4442C29.3887 12.9724 30.4804 13.2718 31.6513 13.2718C32.8222 13.2718 31.7746 13.2718 31.845 13.2718C31.9066 13.2718 31.9594 13.2718 32.0211 13.2718C32.0387 13.2718 32.0475 13.2718 32.0651 13.2718C32.0651 13.2718 32.0651 13.2718 32.0739 13.2718C32.0739 13.2718 32.0739 13.2718 32.0827 13.2718C32.1267 13.2718 32.1795 13.2718 32.2236 13.263C32.2852 13.263 32.3468 13.2541 32.4084 13.2453C32.4084 13.2453 32.4084 13.2453 32.4173 13.2453C32.4613 13.2453 32.5053 13.2365 32.5493 13.2277H32.5669C32.5669 13.2277 32.5669 13.2277 32.5757 13.2277C32.5757 13.2277 32.5933 13.2277 32.6021 13.2277C32.6462 13.2277 32.699 13.2101 32.743 13.2101C32.7606 13.2101 32.7694 13.2101 32.787 13.2101C32.8398 13.2013 32.9015 13.1925 32.9543 13.1749C32.9807 13.1749 33.0071 13.1661 33.0423 13.1573H33.0599C33.0599 13.1573 33.0687 13.1573 33.0775 13.1573C33.1128 13.1573 33.1392 13.1397 33.1744 13.1309C33.2096 13.1309 33.236 13.1133 33.2712 13.1045C33.3064 13.1045 33.3329 13.0869 33.3681 13.0781C33.4033 13.0781 33.4297 13.0605 33.4649 13.0517C33.5177 13.0341 33.5618 13.0252 33.6146 13.0076C33.6674 12.99 33.7202 12.9724 33.773 12.9548C33.8259 12.9372 33.8787 12.9196 33.9227 12.902C33.9755 12.8844 34.0284 12.8668 34.0724 12.8492C34.1252 12.8316 34.1692 12.814 34.222 12.7875C34.2308 12.7875 34.2397 12.7875 34.2485 12.7787L34.2925 12.7611C34.3189 12.7523 34.3365 12.7435 34.3629 12.7347C34.4069 12.7171 34.4597 12.6907 34.5038 12.6731C33.3329 13.712 31.7922 14.3458 30.1018 14.3458C28.4115 14.3458 28.9749 14.2754 28.4467 14.1345C28.3675 14.1169 28.2882 14.0905 28.2178 14.0729C28.2002 14.0729 28.1826 14.0641 28.1562 14.0553C28.121 14.0465 28.0858 14.0377 28.0505 14.0201C27.9977 14.0025 27.9449 13.9849 27.8921 13.9673C27.8304 13.9409 27.7688 13.9232 27.7072 13.8968C27.672 13.8792 27.628 13.8704 27.5927 13.8528C27.5663 13.844 27.5311 13.8264 27.5047 13.8176C27.4431 13.7912 27.3814 13.7648 27.3198 13.7384C27.2582 13.712 27.2054 13.6855 27.1437 13.6503C27.0645 13.6151 26.9941 13.5711 26.9148 13.5359C26.8268 13.483 26.7388 13.4302 26.6507 13.3862C26.5803 13.3422 26.5187 13.307 26.457 13.263C26.4042 13.2277 26.3602 13.1925 26.3074 13.1573C26.2545 13.1221 26.2017 13.0869 26.1489 13.0429C26.0961 13.0076 26.0433 12.9636 25.9992 12.9284C25.9552 12.8932 25.9112 12.858 25.8672 12.8228C25.8232 12.7875 25.7791 12.7523 25.7351 12.7083C25.6823 12.6643 25.6295 12.6115 25.5767 12.5674C25.5414 12.541 25.515 12.5058 25.4798 12.4794C25.4534 12.4618 25.4358 12.4354 25.4182 12.4178C25.383 12.3826 25.3478 12.3474 25.3125 12.3121C25.2861 12.2857 25.2685 12.2681 25.2421 12.2417C25.0748 12.0656 24.9164 11.8719 24.7755 11.6783C24.7579 11.6518 24.7403 11.6342 24.7227 11.6078C24.6963 11.5726 24.6699 11.5374 24.6434 11.5022C24.573 11.4053 24.5026 11.2997 24.441 11.194C24.4145 11.15 24.3793 11.0972 24.3529 11.0444C24.3177 10.9828 24.2825 10.9299 24.2561 10.8683C24.2385 10.8419 24.2297 10.8155 24.2121 10.7891C24.1856 10.7274 24.1504 10.6746 24.124 10.613C24.1152 10.5866 24.0976 10.5602 24.0888 10.5338C24.0624 10.4721 24.0272 10.4017 24.0008 10.3401C23.992 10.3137 23.9743 10.2784 23.9655 10.252C23.9567 10.2256 23.9391 10.1904 23.9303 10.164C23.9039 10.1112 23.8863 10.0495 23.8687 9.99672C23.8511 9.9615 23.8423 9.92629 23.8335 9.88227C23.8159 9.82064 23.7895 9.75902 23.7719 9.69739C23.7543 9.65337 23.7454 9.60055 23.7278 9.54772V9.53011C23.7278 9.51251 23.719 9.4949 23.7102 9.47729C23.7014 9.43327 23.6838 9.38925 23.675 9.33643C23.675 9.32763 23.675 9.31882 23.675 9.31002C23.6662 9.25719 23.6486 9.20437 23.6398 9.15155C23.6398 9.15155 23.6398 9.13394 23.6398 9.12514C23.6222 9.06351 23.6134 8.99308 23.6046 8.93145C23.5958 8.86983 23.5782 8.79939 23.5694 8.73777C23.5694 8.67614 23.5518 8.62332 23.543 8.57049C23.543 8.55289 23.543 8.53528 23.543 8.51767C23.543 8.45604 23.5342 8.40322 23.5254 8.34159C23.5254 8.32399 23.5254 8.30638 23.5254 8.28877C23.5254 8.22714 23.5165 8.15671 23.5165 8.09509C23.5165 8.05987 23.5165 8.02465 23.5165 7.98944C23.5165 7.95422 23.5165 7.9102 23.5165 7.87499C23.5165 7.83977 23.5165 7.79576 23.5165 7.76054C23.5165 7.47882 23.5342 7.20589 23.5694 6.94178C23.5254 6.93297 23.4901 6.92417 23.4461 6.91537C23.4021 6.90656 23.3669 6.89776 23.3229 6.88896C23.2788 6.88015 23.2436 6.87135 23.1996 6.86254C23.1556 6.86254 23.1116 6.84494 23.0764 6.83613C23.0411 6.83613 23.0059 6.82733 22.9707 6.81853C22.9619 6.81853 22.9443 6.81853 22.9355 6.81853C22.9003 6.81853 22.8651 6.80972 22.8298 6.80092C22.7858 6.80092 22.7418 6.79211 22.6978 6.78331C22.6538 6.78331 22.6097 6.77451 22.5657 6.7657C22.5129 6.7657 22.4601 6.7569 22.4073 6.7481C22.3016 6.7481 22.196 6.73049 22.0815 6.73049C22.0287 6.73049 21.9759 6.73049 21.9142 6.73049C21.8526 6.73049 21.8086 6.73049 21.7558 6.73049C21.7382 6.73049 21.7206 6.73049 21.703 6.73049C21.6589 6.73049 21.6237 6.73049 21.5797 6.73049C21.5621 6.73049 21.5445 6.73049 21.5269 6.73049C21.4652 6.73049 21.4124 6.73049 21.3508 6.73929C21.298 6.73929 21.2452 6.74809 21.1923 6.7569C21.1395 6.7569 21.0867 6.7657 21.0251 6.77451C20.9546 6.78331 20.8842 6.79211 20.8138 6.80972C20.7609 6.80972 20.7169 6.82733 20.6729 6.83613C20.6201 6.84494 20.5585 6.86255 20.5056 6.87135C20.5408 7.16188 20.5673 7.4524 20.5673 7.75174C20.5673 8.05107 20.5673 7.87499 20.5673 7.93662C20.5673 7.94542 20.5673 7.96303 20.5673 7.97183C20.5673 8.01585 20.5673 8.05987 20.5673 8.10389C20.5673 8.1215 20.5673 8.13911 20.5673 8.15671C20.5673 8.17432 20.5673 8.19193 20.5673 8.20953C20.5673 8.26236 20.5673 8.32399 20.5496 8.37681C20.5496 8.42963 20.5408 8.49126 20.532 8.55289C20.532 8.5881 20.5232 8.62332 20.5144 8.66734C20.5144 8.71136 20.5056 8.75537 20.4968 8.79939C20.4704 8.96667 20.4352 9.14274 20.4 9.31002C20.4 9.34523 20.3824 9.37164 20.3736 9.40686C20.356 9.46849 20.3384 9.53012 20.3207 9.59174C20.3031 9.65337 20.2855 9.70619 20.2679 9.76782C20.2503 9.82945 20.2327 9.88227 20.2063 9.9439C20.1887 9.99672 20.1623 10.0583 20.1447 10.1112C20.1271 10.164 20.1006 10.2256 20.0742 10.2784C20.0566 10.3137 20.039 10.3577 20.0214 10.3929C19.9862 10.4721 19.951 10.5514 19.9158 10.6306C19.8982 10.657 19.8894 10.6922 19.8717 10.7186C19.8629 10.745 19.8453 10.7627 19.8365 10.7891C19.8189 10.8243 19.8013 10.8507 19.7837 10.8859C19.7397 10.9651 19.6957 11.0444 19.6517 11.1236C19.634 11.1588 19.6076 11.194 19.59 11.2293C19.59 11.2293 19.59 11.2381 19.5812 11.2469C19.5108 11.3613 19.4316 11.4758 19.3523 11.5814C19.3171 11.6342 19.2731 11.6959 19.2291 11.7487C19.185 11.8015 19.141 11.8543 19.1058 11.9072C19.0882 11.9336 19.0706 11.96 19.0442 11.9776C19.0178 12.0128 18.9914 12.0392 18.965 12.0744C18.9385 12.1096 18.9121 12.1361 18.8857 12.1713C18.8505 12.2065 18.8153 12.2505 18.7801 12.2857C18.7801 12.2857 18.7801 12.2857 18.7713 12.2945C18.736 12.3297 18.7008 12.3738 18.6656 12.409C18.6216 12.453 18.5688 12.5058 18.5248 12.5498C18.4807 12.5851 18.4367 12.6291 18.4015 12.6643C18.3839 12.6819 18.3575 12.6995 18.3399 12.7171C18.3223 12.7347 18.2959 12.7523 18.2782 12.7699C18.243 12.7963 18.2078 12.8316 18.1726 12.858C18.0934 12.9196 18.0229 12.9812 17.9437 13.0429C17.8997 13.0781 17.8469 13.1133 17.8028 13.1485C17.7588 13.1837 17.7148 13.2101 17.662 13.2453C17.618 13.2806 17.5651 13.307 17.5211 13.3422C17.4771 13.3686 17.4419 13.395 17.3979 13.4214C17.3538 13.4478 17.3186 13.4742 17.2746 13.4919C17.2394 13.5095 17.213 13.5271 17.1778 13.5447C17.1249 13.5711 17.0721 13.5975 17.0193 13.6327C16.9929 13.6503 16.9665 13.6591 16.9401 13.6679C16.9048 13.6855 16.8608 13.7031 16.8256 13.7208C16.7464 13.756 16.6759 13.7912 16.5967 13.8264C16.4823 13.8704 16.3678 13.9232 16.2534 13.9585C16.2005 13.9761 16.1389 13.9937 16.0861 14.0201C16.0685 14.0201 16.0597 14.0289 16.0421 14.0377C16.0069 14.0465 15.9716 14.0641 15.9364 14.0729C15.8836 14.0905 15.8308 14.1081 15.778 14.1169C15.7515 14.1169 15.7251 14.1345 15.6987 14.1345C15.6987 14.1345 15.6899 14.1345 15.6811 14.1345C15.6547 14.1345 15.6283 14.1521 15.6107 14.1521C15.5843 14.1521 15.5579 14.1609 15.5402 14.1698C15.4874 14.1786 15.4434 14.1962 15.3906 14.205C14.9416 14.3018 14.4662 14.3546 13.9908 14.3546C13.1104 14.3546 12.274 14.1874 11.5081 13.8704C11.4905 13.8704 11.4817 13.8616 11.4641 13.8528C10.8566 13.5975 10.2931 13.263 9.79133 12.8492C10.5485 13.1573 11.376 13.3158 12.2476 13.3158C13.1192 13.3158 14.4486 13.0341 15.3818 12.5322C16.2005 12.092 16.9137 11.4846 17.4859 10.7539C17.5739 10.6482 17.662 10.5338 17.7324 10.4105C17.8469 10.2344 17.9437 10.0407 18.0229 9.83825C18.4103 9.20437 18.4983 8.46485 18.3047 7.80456C18.2078 7.47882 18.0493 7.17948 17.8204 6.91537C17.5211 6.38714 17.0897 5.95575 16.5703 5.64761C16.0685 5.34828 15.4786 5.18101 14.8535 5.18101C12.9695 5.18101 11.4465 6.70408 11.4465 8.5881C11.4465 10.4721 11.4465 8.67614 11.4465 8.72016C11.4465 8.76418 11.4465 8.8082 11.4465 8.85222C11.4465 8.86983 11.4465 8.87863 11.4465 8.88743C11.4465 8.92265 11.4465 8.95786 11.4553 8.98428C11.4553 9.01069 11.4553 9.0371 11.4641 9.05471C11.4641 9.10753 11.4817 9.16035 11.4905 9.21318C11.4905 9.23959 11.4993 9.266 11.5081 9.29241C11.5081 9.31882 11.5169 9.34523 11.5257 9.36284C11.5257 9.38925 11.5345 9.41566 11.5433 9.44208C11.5521 9.47729 11.5609 9.51251 11.5785 9.55653C11.6049 9.63576 11.6313 9.715 11.6577 9.78543C11.6577 9.78543 11.6577 9.79423 11.6577 9.80303C11.4024 9.69739 11.1559 9.53892 10.9358 9.33643C10.9094 9.31002 10.883 9.28361 10.8654 9.2572C10.8478 9.23079 10.8302 9.21318 10.8126 9.18676C10.8038 9.17796 10.795 9.16035 10.7862 9.15155C10.7774 9.14275 10.7686 9.12514 10.7598 9.11633C10.7509 9.10753 10.7421 9.08992 10.7333 9.08112C10.7245 9.06351 10.7069 9.05471 10.6981 9.0371C10.6805 9.01069 10.6629 8.98427 10.6453 8.95786C10.6277 8.93145 10.6101 8.90504 10.5925 8.87863C10.5925 8.87863 10.5925 8.86983 10.5837 8.86102C10.5749 8.84342 10.5661 8.82581 10.5573 8.8082C10.5397 8.78179 10.5309 8.75537 10.5132 8.73777C10.5132 8.73777 10.5132 8.72896 10.5044 8.72016C10.4956 8.70255 10.478 8.67614 10.4692 8.65853C10.4516 8.62332 10.434 8.5969 10.4164 8.56169C10.4164 8.54408 10.3988 8.53528 10.3988 8.51767C10.3812 8.49126 10.3724 8.45604 10.3548 8.42963C10.3548 8.41202 10.3372 8.39442 10.3284 8.37681C10.3196 8.3504 10.3108 8.33279 10.302 8.30638C10.2843 8.27116 10.2755 8.22714 10.2579 8.19193C10.2491 8.16552 10.2403 8.1391 10.2315 8.1215C10.2139 8.06867 10.1963 8.01585 10.1787 7.95422C10.1699 7.9102 10.1523 7.86619 10.1435 7.83097C10.1435 7.81336 10.1347 7.78695 10.1259 7.76934C10.1259 7.75173 10.1259 7.73413 10.1171 7.71652C10.1171 7.6813 10.1083 7.65489 10.0995 7.61968C10.0995 7.58446 10.0907 7.54925 10.0819 7.51403C10.0819 7.48762 10.0819 7.4524 10.0731 7.42599C10.1083 5.86771 10.9358 4.15095 13.0223 3.86923C13.533 3.7988 14.0436 3.79 14.5454 3.81641C15.5843 3.88684 16.5791 4.15095 17.5651 4.55593C17.618 4.58234 17.6708 4.59995 17.7236 4.62636C18.0405 4.75842 18.3487 4.90809 18.648 5.05775C18.6392 5.00493 18.6216 4.96091 18.6128 4.90809C18.6128 4.88167 18.5952 4.85526 18.5864 4.82885C18.5688 4.78483 18.56 4.74081 18.5424 4.68799C18.5248 4.62636 18.5072 4.57354 18.4807 4.51191C18.4807 4.4943 18.4719 4.4855 18.4631 4.46789C18.4631 4.44148 18.4455 4.42387 18.4367 4.39746C18.4103 4.30942 18.3751 4.23019 18.3399 4.15096C17.9173 3.14732 17.257 2.26693 16.4294 1.58023C16.271 1.5186 16.1125 1.45697 15.9452 1.41295C15.8132 1.37774 15.6899 1.33372 15.5579 1.30731C15.0472 1.18405 14.519 1.11362 13.9732 1.11362C10.3108 1.11362 7.35266 4.08052 7.35266 7.73413C7.35266 11.3877 7.35266 7.86619 7.35266 7.92781C7.35266 7.97183 7.35266 8.02466 7.35266 8.06868C7.35266 8.06868 7.35266 8.07748 7.35266 8.08628C7.35266 8.11269 7.35266 8.1391 7.35266 8.16551C7.35266 8.26236 7.37027 8.36801 7.37907 8.46485C7.37907 8.49126 7.37907 8.51767 7.38787 8.53528C7.38787 8.5793 7.39668 8.62332 7.40548 8.65853C7.40548 8.67614 7.40548 8.68494 7.40548 8.70255C7.40548 8.73777 7.41429 8.77298 7.42309 8.8082V8.8258C7.42309 8.84341 7.42309 8.86983 7.43189 8.88743C7.4407 8.94026 7.4495 8.99308 7.4583 9.0459C7.46711 9.10753 7.48472 9.16035 7.49352 9.22198C7.49352 9.23078 7.49352 9.23959 7.49352 9.24839C7.50232 9.30122 7.51993 9.34523 7.52874 9.39806C7.52874 9.39806 7.52874 9.40686 7.52874 9.41566C7.52874 9.41566 7.52874 9.41567 7.52874 9.42447C7.52874 9.45088 7.54634 9.4861 7.55515 9.51251C7.55515 9.51251 7.55515 9.51251 7.55515 9.52131C7.55515 9.55653 7.57275 9.58294 7.58156 9.60935C7.59917 9.67978 7.62558 9.74141 7.64319 9.81184C7.65199 9.84705 7.6696 9.88227 7.6784 9.90868C7.6784 9.91749 7.68721 9.93509 7.69601 9.9439C7.71362 9.98792 7.72242 10.0231 7.74003 10.0672C7.74003 10.076 7.74003 10.0848 7.74883 10.1024C7.76644 10.1552 7.78405 10.1992 7.81046 10.252C7.81046 10.2608 7.81046 10.2696 7.81926 10.2784C7.83687 10.3225 7.85448 10.3665 7.87209 10.4017C7.87209 10.4193 7.88969 10.4369 7.88969 10.4457C7.9073 10.4897 7.93371 10.5338 7.95132 10.5778C7.95132 10.5866 7.95132 10.5954 7.96013 10.6042C7.97773 10.6394 7.99534 10.6746 8.01295 10.701C8.02175 10.7274 8.03936 10.745 8.04816 10.7715C8.05697 10.7891 8.06577 10.8067 8.08338 10.8331C8.08338 10.8507 8.10099 10.8595 8.10979 10.8771C8.10979 10.8947 8.1274 10.9035 8.1362 10.9211C8.21544 11.062 8.29467 11.194 8.38271 11.3261C8.40032 11.3525 8.41793 11.3789 8.43553 11.4053C8.46194 11.4406 8.48836 11.4846 8.51477 11.5198C8.53238 11.555 8.55879 11.5814 8.5852 11.6166C8.5852 11.6254 8.594 11.6342 8.60281 11.643C8.62041 11.6695 8.64683 11.6959 8.66443 11.7311C8.66443 11.7399 8.68204 11.7487 8.69084 11.7575C8.69084 11.7575 8.69084 11.7575 8.69084 11.7663C8.70845 11.7927 8.73486 11.8191 8.75247 11.8455C8.75247 11.8455 8.75247 11.8543 8.76128 11.8631C8.78769 11.8984 8.8141 11.9248 8.84051 11.96C8.90214 12.0392 8.97257 12.1185 9.043 12.1889C9.06061 12.2065 9.06941 12.2241 9.08702 12.2329C9.11343 12.2681 9.14865 12.2945 9.18386 12.3297C9.21908 12.365 9.25429 12.4002 9.28951 12.4354C9.29831 12.4442 9.30712 12.453 9.32472 12.4706C9.35994 12.497 9.38635 12.5322 9.42157 12.5586L9.44798 12.5851C9.492 12.6203 9.52721 12.6555 9.57123 12.6907C9.61525 12.7259 9.65927 12.7699 9.71209 12.8052C9.66807 12.7875 9.62405 12.7699 9.58004 12.7523C7.20299 11.7487 5.53906 9.39806 5.53906 6.65125C5.53906 3.90445 5.93524 4.06292 6.62194 3.02406C6.63954 2.99765 6.65715 2.97124 6.66596 2.95363C7.82807 1.23688 9.76492 0.092374 11.9835 0.0395508C12.0451 0.0395508 12.0979 0.0395508 12.1596 0.0395508H12.1948C12.591 0.0395508 12.9871 0.0659634 13.3833 0.101179C14.0348 0.162806 14.6775 0.277255 15.3113 0.42692C15.3818 0.444528 15.461 0.462136 15.5314 0.479744C16.2358 0.655821 16.9401 0.867114 17.6268 1.09601C17.9877 1.21927 18.3487 1.34252 18.7184 1.45697C19.5724 1.92358 20.5408 2.2053 21.5709 2.24932C21.8262 2.28454 22.0815 2.28454 22.3368 2.24052C23.2524 2.17889 24.1152 1.93238 24.8899 1.5274C25.3477 1.37774 25.8056 1.22807 26.2634 1.07841C26.906 0.867113 27.5487 0.673428 28.2002 0.514959C28.2794 0.497351 28.3499 0.479743 28.4291 0.462135C29.3007 0.259646 30.1899 0.118784 31.0967 0.0659613C31.2816 0.0571574 31.4664 0.0483552 31.6513 0.0483552C31.7217 0.0483552 31.7834 0.0483552 31.8538 0.0483552C34.3101 0.118786 36.423 1.5274 37.5059 3.5611C37.9549 4.41507 38.2278 5.37469 38.2718 6.39594C38.2718 6.42235 38.2718 6.43996 38.2718 6.46637C38.2718 6.5368 38.2718 6.60723 38.2718 6.67766L38.2454 6.64245Z" fill="url(#paint0_linear_416_3126)"/>
<defs>
<linearGradient id="paint0_linear_416_3126" x1="5.50385" y1="7.16188" x2="38.2454" y2="7.16188" gradientUnits="userSpaceOnUse">
<stop stop-color="#FFC402"/>
<stop offset="1" stop-color="#F1078E"/>
</linearGradient>
</defs>
</svg>
