<?xml version="1.0" encoding="UTF-8"?>
<svg id="Layer_1" xmlns="http://www.w3.org/2000/svg" xmlns:xlink="http://www.w3.org/1999/xlink" version="1.1" viewBox="0 0 1080 1080">
  <!-- Generator: Adobe Illustrator 29.5.1, SVG Export Plug-In . SVG Version: 2.1.0 Build 141)  -->
  <defs>
    <style>
      .st0 {
        fill: url(#linear-gradient1);
      }

      .st1 {
        fill: url(#linear-gradient);
      }

      .st2 {
        fill: #fff;
      }
    </style>
    <linearGradient id="linear-gradient" x1="53" y1="476" x2="53.1" y2="476" gradientUnits="userSpaceOnUse">
      <stop offset="0" stop-color="#ffc402"/>
      <stop offset="1" stop-color="#f1078e"/>
    </linearGradient>
    <linearGradient id="linear-gradient1" x1="115.7" y1="399.4" x2="487.6" y2="399.4" xlink:href="#linear-gradient"/>
  </defs>
  <g>
    <g>
      <path class="st2" d="M496.3,516.9h40.3l24.8,40.7,24.8-40.7h40.3v115.7h-38.5v-57.4l-26.6,41.2h-.7l-26.6-41.2v57.4h-37.9v-115.7Z"/>
      <path class="st2" d="M635.4,607v-.3c0-18,13.4-28.1,34.4-28.1s17.4,1.7,21.3,3.3v-1.5c0-8.3-5.1-13.1-16.7-13.1s-17,2-25,5.1l-6.6-25c10.4-4,22.3-6.6,38-6.6s30.3,3.8,38.2,11.7c6.8,6.8,9.4,15.5,9.4,28.6v51.4h-37.5v-9.1c-6.3,6.8-14.7,11.2-26,11.2-17.4,0-29.6-9.9-29.6-27.8ZM691.5,599.2v-3.8c-2.2-.8-5.5-1.5-8.6-1.5-7.4,0-11.6,4.5-11.6,10.1v.3c0,5.3,3.8,8.8,8.6,8.8s11.6-5.3,11.6-13.9Z"/>
      <path class="st2" d="M746,571.3h-10.6v-28.9h10.6c.2-9.6,2.5-17.4,8.1-23,6.1-6.1,14.1-8.6,26.5-8.6s17.9,1,23,2.5v23.5c-3.6-.8-7.3-1.3-12.1-1.3s-8.8,2.3-8.8,7.3v.7h20.8v27.9h-20v61.3h-37.5v-61.3ZM809.2,511.9h38.9v24h-38.9v-24ZM809.9,542.3h37.5v90.3h-37.5v-90.3Z"/>
      <path class="st2" d="M855.5,607v-.3c0-18,13.4-28.1,34.4-28.1s17.4,1.7,21.3,3.3v-1.5c0-8.3-5.1-13.1-16.7-13.1s-17,2-25,5.1l-6.6-25c10.4-4,22.3-6.6,38-6.6s30.3,3.8,38.2,11.7c6.8,6.8,9.4,15.5,9.4,28.6v51.4h-37.5v-9.1c-6.3,6.8-14.7,11.2-26,11.2-17.4,0-29.6-9.9-29.6-27.8ZM911.6,599.2v-3.8c-2.2-.8-5.5-1.5-8.6-1.5-7.4,0-11.6,4.5-11.6,10.1v.3c0,5.3,3.8,8.8,8.6,8.8s11.6-5.3,11.6-13.9Z"/>
    </g>
    <g>
      <path class="st2" d="M539.3,452.8c-1.2-5.3-7.7-5.4-7.8-5.4h-13.3v44.4s0,6.7,5,6.7v.9h-16.4v-.9c5.1,0,5.1-6.7,5.1-6.7v-44.4h-13.3c-.2,0-6.6.1-7.9,5.4h-.9l1.3-6.3h47.9l1.3,6.3h-1Z"/>
      <path class="st2" d="M586.8,472.6c4.1,0,4.1,5.7,4.1,5.8v13.5s0,6.7,5.1,6.7v.9h-16.4v-.9c5,0,5-6.7,5-6.7v-18.9h-31.5v18.9s0,6.7,5,6.7v.9h-16.4v-.9c5,0,5-6.7,5-6.7v-13.5c0-.1,0-5.8,4.1-5.8-4,0-4.1-5.7-4.1-5.8v-12.6s0-6.7-5-6.7v-.9h16.4v.9c-5,0-5,6.7-5,6.7v18h31.5v-18s0-6.7-5-6.7v-.9h16.4v.9c-5.1,0-5.1,6.7-5.1,6.7v12.6c0,.1,0,5.8-4.1,5.8Z"/>
      <path class="st2" d="M642.9,493.2l-1.3,6.3h-42.8v-.9c5,0,5-6.7,5-6.7v-13.5c0-.1,0-5.8,4.1-5.8-4,0-4.1-5.7-4.1-5.8v-12.6s0-6.7-5-6.7v-.9h41.6l1.3,6.3h-.9c-1.3-5.3-7.7-5.4-7.9-5.4h-22.7v24.6h18.9s6.6,0,6.6-5.1h1v11h-1c0-5-6.6-5-6.6-5h-18.9v25.5h23.9c.2,0,6.7-.1,7.9-5.4h1Z"/>
      <path class="st2" d="M721.7,487.2c0,9.5-11.2,13.3-22.7,13.3s-15.8-1.6-21.8-5.4v-10.9c3.2,9,12,15.3,21.8,15.3s16.7-4.7,16.7-10.6c0-13.9-40.7-15.2-40.7-30.6s11.4-12.6,22.8-12.6,13.7,1.5,19.7,5.3l-5.1,10.9c-1.2-8.7-4.7-15.3-15.4-15.3s-16.4,4.1-16.4,9.8c0,11,41,13.9,41,30.9Z"/>
      <path class="st2" d="M778.4,473c0,15.1-12.1,27.4-27.1,27.4s-27.1-12.2-27.1-27.4,0-.8,0-1.2c.9,2,2.9,5.1,7.7,8,2.7,11.9,11.5,20.3,21.1,19.7,11.1-.8,19.3-13.3,18.3-27.8-1-14.5-9.3-25.7-20.4-25-8.5.6-18.1,3.1-18.1,16.9s2.7,13.7,11.2,14.4c7.7.7,12.3-4.7,12.3-12.5l3.7,8.6c-3.6,3-8.3,4.9-14.8,4.9-10.7,0-19.1-5.7-19.1-14.8v.2c0,.2,0-.6,0-.3,0-12.4,12.4-18.4,25-18.4s27.1,12.3,27.1,27.4Z"/>
      <path class="st2" d="M828,484.2v10.9c-6,3.8-11.3,5.3-18.3,5.3-15,0-27.1-12.2-27.1-27.4s12.1-27.4,27.1-27.4,12.3,1.6,18.3,5.4l-5,10.9c-.3-6.8-4.7-15.3-13.3-15.3s-20.2,11.8-20.2,26.5,9.1,26.5,20.2,26.5,15.1-6.2,18.3-15.3Z"/>
      <path class="st2" d="M841.7,454.1v37.8s0,6.7,5,6.7v.9h-16.4v-.9c5,0,5-6.7,5-6.7v-37.8s0-6.7-5-6.7v-.9h16.4v.9c-5,0-5,6.7-5,6.7Z"/>
      <path class="st2" d="M904.5,498.6v.9h-16.4v-.9c4.4,0,1.8-6.7,1.8-6.7l-4.4-10.1h-24.1l-4.4,10.1s-2.8,6.7,1.7,6.7v.9h-11v-.9c5.4,0,8.3-6.7,8.3-6.7l19.7-45.4h.9l19.5,45.4s2.9,6.7,8.3,6.7ZM885.2,480.9l-11.6-27-11.7,27h23.3Z"/>
      <path class="st2" d="M949.6,493.2l-1.3,6.3h-42.9v-1c5,0,5-6.6,5-6.6v-37.8s0-6.6-5-6.6v-.9h16.4v.9c-5,0-5,6.6-5,6.6v44.4h23.9c.2,0,6.7,0,7.9-5.3h1Z"/>
    </g>
  </g>
  <g>
    <path class="st2" d="M417.4,473.1c0,9.2-2.5,10.2-19.7,10.2h-25.8c0-.1-21.7-.1-21.7-.1-4.5,0-8.6.4-12.4,1.1-5.9,1.1-11,3-15.5,5.7-5.2,3-9.5,7-12.9,11.7-2-2.7-4.3-5.2-6.9-7.4-8-6.8-19-10.9-33-11.1h-21.6c0,.1-26.1.1-26.1.1-19.6,0-20-1.4-19.7-14.4,1.9-.8,3.9-1.7,5.8-2.5,3.1-1.3,6.1-2.6,9.2-3.8h0c10.3-4.3,20.7-8.6,31-13,.7-.3,1.4-.6,2.1-.9,6.3-2.6,12.8-2.8,19.2-.7.7.2,1.3.5,2,.7,6.7,2.7,13.4,5.4,20.1,8.3,8.9,4,17.6,4,26.5.1,6.9-3.1,14-5.9,21-8.7.4-.1.7-.3,1.1-.4,6.2-2.2,12.5-2.2,18.6.3,4.4,1.8,8.7,3.6,13.1,5.4,6.8,2.8,13.7,5.7,20.5,8.6,7.9,3.3,15.7,6.6,23.6,9.9h0c.5.2,1,.4,1.6.7Z"/>
    <path class="st2" d="M447.6,590.8c-31.8,17.1-65.2,29.8-101.1,35-13.3,1.9-26.7,3.3-37.4,2.9-52,.4-97.7-12.9-141.3-35.1-4.2-2.1-8.2-4.5-12.4-6.4-3.8-1.7-4.7-4.4-4.2-8.3.8-6.6,3.5-12.6,5.9-18.7,4.4-11.1,8.7-22.1,13.1-33.2,1.5-3.9,1.4-6.4-3.7-6.2-2.9.1-3.5-1.3-2.8-4,2.5-8.4,4.9-16.9,7.4-25.3,2.2-7.2,6.9-12.4,13.7-15.3,1-.4,2-.8,3-1.3,0,22,2.6,22.7,33.9,22.7h26.1v91.6h21.6v-84.4c12.6.3,20.2,7.2,24.4,15.3,3.4,6.4,4.7,13.6,4.7,18.5v19.7h21.7v-19.7c0-6.1,1.9-15.5,7.4-22.8,4.6-6.2,11.8-11,22.6-11v84.4h21.7v-91.6h25.8c28.5,0,33.2-.6,33.8-17.2,3.3,2.9,5.7,6.7,7,11.3,2.5,8.3,4.8,16.6,7.3,24.8.9,2.8.4,4.4-2.9,4.2-4.8-.2-5.1,2.2-3.6,5.9,5.1,12.8,10.1,25.7,15.2,38.5.5,1.1.9,2.3,1.3,3.4,5.1,13.7,4.3,15.5-8.2,22.2Z"/>
    <path class="st2" d="M440.9,621.1c-4.5,12.9-13.3,23-22.4,32.6-19.5,20.6-42.3,36.9-68.6,47.9-14.5,6.1-29.5,9.5-52.7,9.5-17,.1-39-8.3-59.5-20.5-25.8-15.2-48.2-34.4-64.5-60-2.6-4.1-4.6-8.5-5.5-13.3-1.1-6.3,1-9.3,7.1-11.1,5.6-1.6,10.5.4,15.4,2.8,16.2,7.8,33,14.1,50.3,18.8,55.8,15.3,110.5,12.6,163.7-10.9,5.4-2.4,10.6-5,15.9-7.5,1.9-.9,3.7-1.9,5.6-2.6,5.2-1.9,10.1-.6,14.1,2.7,4,3.2,2.4,7.7,1,11.6Z"/>
    <path class="st1" d="M53.1,475.6c0,.3,0,.5,0,.8,0-.3,0-.5,0-.8,0,0,0,0,0,0Z"/>
    <path class="st0" d="M487.6,393.5c0,29.9-17.5,55.8-42.8,67.9,4.4-3.9,8.3-8.3,11.7-13.2,0,0,0,0,0,0,5.1-7.4,9-15.7,11.2-24.6,1.5-5.9,2.3-12.1,2.3-18.4,0-41.5-33.7-75.2-75.2-75.2s-14.5,1.1-21.2,3c-1.6.5-3.2,1-4.8,1.6h0c-2.2.8-4.3,1.7-6.4,2.7-8.2,7.3-14.7,16.3-19.1,26.5h0c-.3.6-.5,1.2-.8,1.8-.2.4-.3.8-.4,1.2,0,.2-.1.4-.2.5,0,0,0,0,0,0-.2.4-.3.9-.5,1.4-.2.6-.4,1.3-.6,1.9-.2.5-.3,1-.4,1.4-.1.4-.2.8-.4,1.2,0,.1,0,.3-.1.4-.1.5-.3,1-.4,1.5,0,0,.2,0,.3-.1,2.8-1.5,5.7-2.9,8.5-4.2,12-5.3,24.5-8.8,37.6-9.9.9,0,1.7-.1,2.6-.2,28-1.7,44.9,10.1,48.7,38.1,0,0,0,0,0,0h0c0,.9,0,1.7-.2,2.5,0,.1,0,.2,0,.3,0,.4,0,.8-.1,1.2,0,.4-.1.9-.2,1.3,0,.4-.2.9-.3,1.3,0,.4-.2.8-.3,1.2,0,0,0,0,0,0-.1.4-.2.8-.3,1.2,0,.3-.2.7-.3,1,0,.3-.2.6-.3.9,0,.3-.2.5-.3.8-.2.6-.4,1.1-.7,1.7-.1.3-.2.5-.3.8-.6,1.4-1.3,2.7-2,3.9,0,.2-.2.3-.3.4-.3.5-.6,1-1,1.5-.1.2-.3.4-.4.6-.1.2-.3.4-.4.6-.1.2-.3.4-.4.6,0,.1-.2.3-.3.4-.2.2-.3.4-.5.6-.4.5-.9,1-1.3,1.5-.1.1-.3.3-.4.4-.2.2-.4.4-.5.6,0,0,0,0,0,0-2.4,2-5.1,3.5-8,4.4,0-.2.2-.4.2-.6.2-.4.3-.9.5-1.3,0-.2.2-.5.2-.7,0-.2.1-.4.2-.5,0-.2.1-.4.2-.6.2-.8.4-1.6.6-2.4,0-.3.1-.6.2-.8,0-.2,0-.5.1-.7,0-.3.1-.7.2-1.1,0-.3,0-.6.1-.9,0-.4,0-.7.1-1.1,0,0,0,0,0,0,.7-4.4.4-8.6-1-12.6,0,0,0,0,0,0,0-.2,0-.4-.1-.6,0-.3-.2-.7-.3-1,0-.3-.2-.5-.2-.8,0-.3-.2-.5-.3-.8-.2-.5-.4-1-.6-1.5-.2-.5-.4-.9-.6-1.4,0,0,0,0,0-.1-.3-.7-.6-1.4-1-2.1,0,0,0-.1,0-.2-.2-.3-.3-.6-.5-.9-.2-.3-.4-.7-.6-1-.5-.9-1.1-1.8-1.7-2.6-.2-.2-.3-.4-.5-.7-.1-.2-.3-.4-.4-.5-.2-.2-.3-.4-.5-.6-.2-.2-.3-.4-.5-.6-.3-.4-.7-.8-1.1-1.2-.4-.4-.7-.8-1.1-1.1-.2-.2-.3-.3-.5-.5-1.2-1.1-2.4-2.2-3.7-3.1-.2-.2-.4-.3-.6-.5-.2-.2-.5-.4-.7-.5-.2-.1-.4-.3-.6-.4-.4-.2-.7-.5-1.1-.7-.3-.2-.5-.3-.8-.5,0,0,0,0,0,0-.3-.2-.5-.3-.8-.4-.3-.1-.5-.3-.8-.4-.3-.2-.6-.3-.9-.5-.1,0-.3-.1-.4-.2-.1,0-.3-.1-.4-.2-.3-.1-.6-.3-.9-.4-.3-.1-.6-.3-.9-.4-.2,0-.3-.1-.5-.2-.4-.2-.8-.3-1.3-.5-.9-.3-1.7-.6-2.6-.8-.4-.1-.9-.2-1.3-.3-.2,0-.4,0-.6-.1-.4,0-.8-.2-1.2-.2-.4,0-.7-.1-1.1-.2,0,0,0,0,0,0-.2,0-.4,0-.7,0-.3,0-.7,0-1-.1-.4,0-.8,0-1.2-.1,0,0,0,0-.1,0-.5,0-1,0-1.5,0-.2,0-.3,0-.5,0-.3,0-.6,0-.8,0-6.8,0-13.1,1.7-18.6,4.8-7.8,4.3-14,11.2-17.3,19.5-1.1,2-2,4-2.6,6.1-1.6,5.5-1.3,11.4.8,17.1.4,1.8,1,3.6,1.6,5.3,2.3,5.9,6,11.1,10.7,15.2h0c5.5,6,12,11.2,19.1,15.1,10.8,6,23.2,9.4,36.5,9.4s1.4,0,2.2,0c.7,0,1.3,0,2,0,.2,0,.3,0,.5,0,0,0,0,0,.1,0,0,0,0,0,.1,0,.5,0,1.1,0,1.6-.1.7,0,1.4-.1,2.1-.2,0,0,0,0,.1,0,.5,0,1-.1,1.5-.2,0,0,.2,0,.2,0,0,0,0,0,.1,0,0,0,.2,0,.3,0,.5,0,1.1-.2,1.6-.2.2,0,.3,0,.5,0,.6-.1,1.3-.2,1.9-.4.3,0,.6-.1,1-.2,0,0,.2,0,.2,0,0,0,.1,0,.2,0,.4,0,.7-.2,1.1-.3.4,0,.7-.2,1.1-.3.4,0,.7-.2,1.1-.3.4,0,.7-.2,1.1-.3.6-.2,1.1-.3,1.7-.5.6-.2,1.2-.4,1.8-.6.6-.2,1.2-.4,1.7-.6.6-.2,1.2-.4,1.7-.6.6-.2,1.1-.4,1.7-.7,0,0,0,0,0,0,.1,0,.2,0,.3-.1l.5-.2c.3-.1.5-.2.8-.3.5-.2,1.1-.5,1.6-.7-13.3,11.8-30.8,19-50,19s-12.8-.8-18.8-2.4c-.9-.2-1.8-.5-2.6-.7-.2,0-.4-.1-.7-.2-.4-.1-.8-.2-1.2-.4-.6-.2-1.2-.4-1.8-.6-.7-.3-1.4-.5-2.1-.8-.4-.2-.9-.3-1.3-.5-.3-.1-.7-.3-1-.4-.7-.3-1.4-.6-2.1-.9-.7-.3-1.3-.6-2-1-.9-.4-1.7-.9-2.6-1.3-1-.6-2-1.2-3-1.7-.8-.5-1.5-.9-2.2-1.4-.6-.4-1.1-.8-1.7-1.2-.6-.4-1.2-.8-1.8-1.3-.6-.4-1.2-.9-1.7-1.3-.5-.4-1-.8-1.5-1.2-.5-.4-1-.8-1.5-1.3-.6-.5-1.2-1.1-1.8-1.6-.4-.3-.7-.7-1.1-1-.3-.2-.5-.5-.7-.7-.4-.4-.8-.8-1.2-1.2-.3-.3-.5-.5-.8-.8-1.9-2-3.7-4.2-5.3-6.4-.2-.3-.4-.5-.6-.8-.3-.4-.6-.8-.9-1.2-.8-1.1-1.6-2.3-2.3-3.5-.3-.5-.7-1.1-1-1.7-.4-.7-.8-1.3-1.1-2-.2-.3-.3-.6-.5-.9-.3-.7-.7-1.3-1-2-.1-.3-.3-.6-.4-.9-.3-.7-.7-1.5-1-2.2-.1-.3-.3-.7-.4-1-.1-.3-.3-.7-.4-1,0,0,0,0,0,0-.3-.6-.5-1.3-.7-1.9-.2-.4-.3-.8-.4-1.3-.2-.7-.5-1.4-.7-2.1-.2-.5-.3-1.1-.5-1.7,0,0,0-.2,0-.2,0-.2-.1-.4-.2-.6-.1-.5-.3-1-.4-1.6,0-.1,0-.2,0-.3-.1-.6-.3-1.2-.4-1.8,0,0,0-.2,0-.3-.2-.7-.3-1.5-.4-2.2-.1-.7-.3-1.5-.4-2.2h0c0-.7-.2-1.3-.3-1.9,0-.2,0-.4,0-.6,0-.7-.1-1.3-.2-2,0-.2,0-.4,0-.6,0-.7-.1-1.5-.1-2.2,0-.4,0-.8,0-1.2,0-.4,0-.9,0-1.3,0-.4,0-.9,0-1.3,0-3.2.2-6.3.6-9.3-.5-.1-.9-.2-1.4-.3-.5-.1-.9-.2-1.4-.3-.5-.1-.9-.2-1.4-.3-.5,0-1-.2-1.4-.3-.4,0-.8-.1-1.2-.2-.1,0-.3,0-.4,0-.4,0-.8-.1-1.2-.2-.5,0-1-.1-1.5-.2-.5,0-1-.1-1.5-.2h0c-.6,0-1.2-.1-1.8-.2-1.2,0-2.4-.2-3.7-.2-.6,0-1.2,0-1.9,0s-1.2,0-1.8,0c-.2,0-.4,0-.6,0-.5,0-.9,0-1.4,0-.2,0-.4,0-.6,0-.7,0-1.3,0-2,.1-.6,0-1.2.1-1.8.2-.6,0-1.2.1-1.9.2-.8.1-1.6.2-2.4.4-.6,0-1.1.2-1.6.3-.6.1-1.3.3-1.9.4.4,3.3.7,6.6.7,10s0,1.4,0,2.1c0,.1,0,.3,0,.4,0,.5,0,1,0,1.5,0,.2,0,.4,0,.6,0,.2,0,.4,0,.6,0,.6,0,1.3-.2,1.9,0,.6-.1,1.3-.2,2,0,.4-.1.8-.2,1.3,0,0,0,0,0,0,0,.5-.1,1-.2,1.5-.3,1.9-.7,3.9-1.1,5.8,0,.4-.2.7-.3,1.1-.2.7-.4,1.4-.6,2.1-.2.7-.4,1.3-.6,2s-.4,1.3-.7,2c-.2.6-.5,1.3-.7,1.9-.2.6-.5,1.3-.8,1.9-.2.4-.4.9-.6,1.3-.4.9-.8,1.8-1.2,2.7-.2.3-.3.7-.5,1-.1.3-.3.5-.4.8-.2.4-.4.7-.6,1.1-.5.9-1,1.8-1.5,2.7-.2.4-.5.8-.7,1.2,0,0,0,.1-.1.2-.8,1.3-1.7,2.6-2.6,3.8-.4.6-.9,1.3-1.4,1.9-.5.6-1,1.2-1.4,1.8-.2.3-.4.6-.7.8-.3.4-.6.7-.9,1.1-.3.4-.6.7-.9,1.1-.4.4-.8.9-1.2,1.3,0,0,0,0-.1.1-.4.4-.8.9-1.2,1.3-.5.5-1.1,1.1-1.6,1.6-.5.4-1,.9-1.4,1.3-.2.2-.5.4-.7.6-.2.2-.5.4-.7.6-.4.3-.8.7-1.2,1-.9.7-1.7,1.4-2.6,2.1-.5.4-1.1.8-1.6,1.2,0,0,0,0,0,0-.5.4-1,.7-1.6,1.1-.5.4-1.1.7-1.6,1.1-.5.3-.9.6-1.4.9-.5.3-.9.6-1.4.8-.4.2-.7.4-1.1.6-.6.3-1.2.6-1.8,1-.3.2-.6.3-.9.4-.4.2-.9.4-1.3.6-.9.4-1.7.8-2.6,1.2-1.3.5-2.6,1.1-3.9,1.5-.6.2-1.3.4-1.9.7-.2,0-.3.1-.5.2-.4.1-.8.3-1.2.4-.6.2-1.2.4-1.8.5-.3,0-.6.2-.9.2,0,0-.1,0-.2,0-.3,0-.6.2-.8.2-.3,0-.6.1-.8.2-.6.1-1.1.3-1.7.4-5.1,1.1-10.5,1.7-15.9,1.7-10,0-19.5-1.9-28.2-5.5,0,0,0,0,0,0,0,0,0,0,0,0-.2,0-.3-.1-.5-.2-6.9-2.9-13.3-6.7-19-11.4,8.6,3.5,18,5.3,27.9,5.3s25-3.2,35.6-8.9c9.3-5,17.4-11.9,23.9-20.2,0,0,0,0,0,0,1-1.2,2-2.5,2.8-3.9,0,0,0,0,0,0,1.3-2,2.4-4.2,3.3-6.5,4.4-7.2,5.4-15.6,3.2-23.1-1.1-3.7-2.9-7.1-5.5-10.1-3.4-6-8.3-10.9-14.2-14.4-5.7-3.4-12.4-5.3-19.5-5.3-21.4,0-38.7,17.3-38.7,38.7s0,1,0,1.5c0,0,0,0,0,0,0,.5,0,1,0,1.5,0,.2,0,.3,0,.4,0,.4,0,.8.1,1.1,0,.3,0,.6.1.8,0,.6.2,1.2.3,1.8,0,.3.1.6.2.9,0,.3.1.6.2.8,0,.3.1.6.2.9,0,0,0,0,0,0,.1.4.2.8.4,1.3.3.9.6,1.8.9,2.6,0,0,0,.1,0,.2-2.9-1.2-5.7-3-8.2-5.3,0,0,0,0,0,0-.3-.3-.6-.6-.8-.9-.2-.3-.4-.5-.6-.8-.1-.1-.2-.3-.3-.4-.1-.1-.2-.3-.3-.4-.1-.1-.2-.3-.3-.4-.1-.2-.3-.3-.4-.5-.2-.3-.4-.6-.6-.9-.2-.3-.4-.6-.6-.9,0,0,0-.1-.1-.2-.1-.2-.2-.4-.3-.6,0,0,0,0,0,0-.2-.3-.3-.6-.5-.8,0,0,0-.1-.1-.2-.1-.2-.3-.5-.4-.7-.2-.4-.4-.7-.6-1.1,0-.2-.2-.3-.2-.5-.2-.3-.3-.7-.5-1,0-.2-.2-.4-.3-.6-.1-.3-.2-.5-.3-.8-.2-.4-.3-.9-.5-1.3-.1-.3-.2-.6-.3-.8-.2-.6-.4-1.2-.6-1.9-.1-.5-.3-1-.4-1.4,0-.2-.1-.5-.2-.7,0-.2,0-.4-.1-.6,0-.4-.1-.7-.2-1.1,0-.4-.1-.8-.2-1.2,0-.3,0-.7-.1-1,0,0,0,0,0,0,.4-17.7,9.8-37.2,33.5-40.4,5.8-.8,11.6-.9,17.3-.6,0,0,0,0,0,0,11.8.8,23.1,3.8,34.3,8.4.6.3,1.2.5,1.8.8,3.6,1.5,7.1,3.2,10.5,4.9,0,0,0,0,0,0-.1-.6-.3-1.1-.4-1.7,0-.3-.2-.6-.3-.9-.2-.5-.3-1-.5-1.6-.2-.7-.4-1.3-.7-2,0-.2-.1-.3-.2-.5,0,0,0,0,0,0,0-.3-.2-.5-.3-.8-.3-1-.7-1.9-1.1-2.8h0c-4.8-11.4-12.3-21.4-21.7-29.2-1.8-.7-3.6-1.4-5.5-1.9-1.5-.4-2.9-.9-4.4-1.2-5.8-1.4-11.8-2.2-18-2.2-41.6,0-75.2,33.7-75.2,75.2s0,1.5,0,2.2c0,.5,0,1.1,0,1.6,0,0,0,.1,0,.2,0,.3,0,.6,0,.9,0,1.1.2,2.3.3,3.4,0,.3,0,.6.1.8,0,.5.1,1,.2,1.4,0,.2,0,.3,0,.5,0,.4.1.8.2,1.2,0,0,0,.2,0,.2h0c0,.2,0,.5.1.7.1.6.2,1.2.3,1.8.1.7.3,1.3.4,2,0,.1,0,.2,0,.3.1.6.3,1.1.4,1.7,0,0,0,.1,0,.2,0,0,0,0,0,.1,0,.3.2.7.3,1,0,0,0,0,0,.1,0,.4.2.7.3,1,.2.8.5,1.5.7,2.3.1.4.3.8.4,1.1,0,.1.1.3.2.4.2.5.3.9.5,1.4,0,.1,0,.2.1.4.2.6.4,1.1.7,1.7h0c0,.1,0,.2.1.3.2.5.4,1,.6,1.4,0,.2.2.4.2.5.2.5.5,1,.7,1.5,0,.1,0,.2.1.3.2.4.4.8.6,1.1.1.3.3.5.4.8.1.2.2.4.4.7,0,.2.2.3.3.5,0,.2.2.3.3.5.9,1.6,1.8,3.1,2.8,4.6.2.3.4.6.6.9.3.4.6.9.9,1.3.2.4.5.7.8,1.1,0,.1.1.2.2.3.2.3.5.6.7,1,0,0,0,0,0,0,0,.1.2.2.3.3,0,0,0,0,0,0,0,0,0,0,0,.1.2.3.5.6.7.9,0,0,0,.1.1.2.3.4.6.7.9,1.1h0c.7.9,1.5,1.8,2.3,2.6.2.2.3.4.5.5,0,0,0,0,0,0,.3.4.7.7,1.1,1.1.4.4.8.8,1.2,1.2,0,0,0,0,0,0,.1.1.2.2.4.4.4.3.7.7,1.1,1l.3.3c.5.4.9.8,1.4,1.2,0,0,0,0,0,0,.5.4,1,.9,1.6,1.3-.5-.2-1-.4-1.5-.6h0c-27-11.4-45.9-38.1-45.9-69.3s4.5-29.4,12.3-41.2c.2-.3.4-.6.5-.8,13.2-19.5,35.2-32.5,60.4-33.1.7,0,1.3,0,2,0h.4c4.5,0,9,.3,13.5.7,7.4.7,14.7,2,21.9,3.7.8.2,1.7.4,2.5.6,8,2,16,4.4,23.8,7,4.1,1.4,8.2,2.8,12.4,4.1,9.7,5.3,20.7,8.5,32.4,9,2.9.4,5.8.4,8.7-.1,10.4-.7,20.2-3.5,29-8.1,5.2-1.7,10.4-3.4,15.6-5.1,7.3-2.4,14.6-4.6,22-6.4.9-.2,1.7-.4,2.6-.6,9.9-2.3,20-3.9,30.3-4.5,0,0,0,0,0,0,2.1-.1,4.2-.2,6.3-.2.8,0,1.5,0,2.3,0,27.9.8,51.9,16.8,64.2,39.9,5.1,9.7,8.2,20.6,8.7,32.2,0,.3,0,.5,0,.8h0c0,.8,0,1.6,0,2.4Z"/>
  </g>
</svg>